<svg width="89" height="120" viewBox="0 0 89 120" fill="none" xmlns="http://www.w3.org/2000/svg">
<path fill-rule="evenodd" clip-rule="evenodd" d="M36.9373 53.5649L27.4479 13.8947C26.0421 8.01773 29.6295 1.96837 35.4607 0.383087C41.2918 -1.20219 47.1585 2.27692 48.5644 8.15391L57.938 47.3401C58.0604 47.8517 58.7881 47.8517 58.9105 47.3401L68.2001 8.51579C69.5 3.08307 74.9235 -0.132728 80.3138 1.3331C85.7041 2.79894 89.0201 8.39132 87.7202 13.824L77.8795 54.9516C77.9542 55.1962 77.9986 55.4542 78.0082 55.7215L78.8532 79.1386C79.6587 101.463 61.7788 120 39.4394 120C17.6576 120 0 102.343 0 80.5607V65.7521C0 64.4011 0.903044 63.2167 2.20586 62.8591L32.2444 54.6133C33.7926 54.1883 35.3587 53.8386 36.9373 53.5649Z" fill="url(#paint0_linear_508_12771)"/>
<rect y="75.7915" width="31.2716" height="18.8237" rx="9.41184" transform="rotate(-90 0 75.7915)" fill="url(#paint1_linear_508_12771)"/>
<rect x="18.6973" y="75.6812" width="33.9315" height="19.3894" rx="9.69471" transform="rotate(-90 18.6973 75.6812)" fill="url(#paint2_linear_508_12771)"/>
<path fill-rule="evenodd" clip-rule="evenodd" d="M38.431 79.5495C34.6352 78.916 31.8535 75.6315 31.8535 71.7833C31.8535 67.4348 35.3786 63.9097 39.7271 63.9097H59.6705C60.2483 63.9097 60.8141 63.9611 61.3635 64.0597C63.5612 64.1343 65.7561 64.8207 67.7002 66.1452L72.8183 69.6321C80.0095 74.5314 81.0506 85.0546 74.969 91.37C68.8873 97.6855 58.7537 96.6043 54.0357 89.1367L50.6779 83.8218C50.1876 83.0459 49.7882 82.2314 49.4781 81.3931L38.431 79.5495Z" fill="url(#paint3_linear_508_12771)"/>
<defs>
<linearGradient id="paint0_linear_508_12771" x1="43.3384" y1="142.159" x2="47.7409" y2="21.8197" gradientUnits="userSpaceOnUse">
<stop stop-color="#F84995"/>
<stop offset="1" stop-color="#FFD445"/>
</linearGradient>
<linearGradient id="paint1_linear_508_12771" x1="15.6962" y1="49.1959" x2="15.6962" y2="87.9841" gradientUnits="userSpaceOnUse">
<stop offset="0.221101" stop-color="#F84995"/>
<stop offset="1" stop-color="#FFD445"/>
</linearGradient>
<linearGradient id="paint2_linear_508_12771" x1="35.7285" y1="48.2863" x2="35.7285" y2="88.2402" gradientUnits="userSpaceOnUse">
<stop offset="0.221101" stop-color="#F84995"/>
<stop offset="1" stop-color="#FFD445"/>
</linearGradient>
<linearGradient id="paint3_linear_508_12771" x1="55.3981" y1="63.9097" x2="55.3981" y2="95.4965" gradientUnits="userSpaceOnUse">
<stop stop-color="#FFD546"/>
<stop offset="1" stop-color="#FB8076"/>
</linearGradient>
</defs>
</svg>
