<svg width="364" height="389" viewBox="0 0 364 389" fill="none" xmlns="http://www.w3.org/2000/svg">
<path d="M40.4367 165.523C31.9851 117.591 63.9897 71.8843 111.921 63.4327L201.992 47.5508C249.923 39.0992 295.63 71.1037 304.082 119.035L313.76 173.922C318.328 199.831 301.028 224.537 275.12 229.106L105.298 259.05C79.3898 263.618 54.6831 246.318 50.1147 220.41L40.4367 165.523Z" fill="#592966"/>
<rect x="269.965" y="188.9" width="66.6898" height="73.3588" rx="33.3449" transform="rotate(-10 269.965 188.9)" fill="url(#paint0_linear_407_12875)"/>
<path fill-rule="evenodd" clip-rule="evenodd" d="M160.595 76.1331C94.7868 87.7369 50.8454 150.492 62.4492 216.3L64.0208 225.213C45.8848 228.411 33.7751 245.706 36.973 263.842L38.131 270.409C41.3289 288.546 58.6236 300.655 76.7597 297.457C78.3744 297.173 79.9413 296.776 81.4539 296.277C104.64 343.262 156.77 371.384 210.97 361.827C276.779 350.223 320.72 287.468 309.116 221.66L300.762 174.279C289.158 108.471 226.403 64.5294 160.595 76.1331Z" fill="url(#paint1_linear_407_12875)"/>
<rect x="311.243" y="206.29" width="18.1015" height="24.7705" rx="9.05076" transform="rotate(-10 311.243 206.29)" fill="url(#paint2_linear_407_12875)"/>
<rect width="18.1015" height="24.7705" rx="9.05076" transform="matrix(-0.984808 0.173648 0.173648 0.984808 64.0176 249.883)" fill="url(#paint3_linear_407_12875)"/>
<path fill-rule="evenodd" clip-rule="evenodd" d="M86.2629 39.4177C87.3733 39.2219 88.4322 39.9633 88.6279 41.0737L92.8126 64.8063C92.3058 56.772 97.9097 49.4686 106.024 48.0378C106.896 47.8841 107.727 48.466 107.88 49.3375L110.412 63.6982L197.22 48.3916C234.274 41.8581 269.866 61.9222 284.408 94.8691C293.126 96.473 300.342 103.326 301.972 112.568L314.06 181.124L304.209 182.861C296.436 184.231 289.024 179.042 287.654 171.269L279.382 124.357L66.4008 161.911L74.6726 208.823C76.0432 216.596 70.8532 224.008 63.0806 225.378L53.2291 227.115L41.8778 162.739C40.4378 161.445 39.4039 159.679 39.0418 157.625C34.9642 134.5 41.2462 111.945 54.5539 94.7204L53.1429 86.7181C49.2271 64.5106 64.0554 43.3335 86.2629 39.4177Z" fill="url(#paint4_linear_407_12875)"/>
<rect x="179.943" y="243.469" width="19.5306" height="31.4395" rx="9.7653" transform="rotate(-10 179.943 243.469)" fill="#E296AF"/>
<line x1="205.032" y1="303.384" x2="204.369" y2="298.616" stroke="#E296AF" stroke-width="19.2573" stroke-linecap="round"/>
<path d="M130.569 243.55V243.55C135.97 234.284 148.402 232.092 156.646 238.952V238.952" stroke="#390950" stroke-width="9.62862" stroke-linecap="round"/>
<path d="M220.651 227.666V227.666C226.052 218.4 238.484 216.208 246.728 223.068V223.068" stroke="#390950" stroke-width="9.62862" stroke-linecap="round"/>
<path fill-rule="evenodd" clip-rule="evenodd" d="M124.392 218.536C133.14 212.828 143.839 210.941 154.012 213.313C156.575 213.911 159.138 212.317 159.736 209.754C160.334 207.19 158.74 204.627 156.176 204.03C143.472 201.067 130.108 203.424 119.183 210.553C116.978 211.991 116.357 214.944 117.796 217.149C119.234 219.353 122.187 219.974 124.392 218.536ZM214.474 202.652C223.222 196.944 233.922 195.057 244.094 197.429C246.658 198.027 249.221 196.433 249.818 193.87C250.416 191.306 248.822 188.743 246.259 188.146C233.554 185.183 220.191 187.54 209.265 194.669C207.061 196.107 206.44 199.06 207.878 201.265C209.317 203.469 212.27 204.09 214.474 202.652Z" fill="#592966"/>
<defs>
<linearGradient id="paint0_linear_407_12875" x1="269.965" y1="225.579" x2="377.144" y2="225.916" gradientUnits="userSpaceOnUse">
<stop stop-color="#D6538A"/>
<stop offset="1" stop-color="#EFD8D5"/>
</linearGradient>
<linearGradient id="paint1_linear_407_12875" x1="132.802" y1="14.5244" x2="169.97" y2="229.263" gradientUnits="userSpaceOnUse">
<stop stop-color="#D6538A"/>
<stop offset="1" stop-color="#EFD8D5"/>
</linearGradient>
<linearGradient id="paint2_linear_407_12875" x1="320.294" y1="206.29" x2="320.294" y2="231.06" gradientUnits="userSpaceOnUse">
<stop stop-color="#D6538A"/>
<stop offset="1" stop-color="#D6538A" stop-opacity="0"/>
</linearGradient>
<linearGradient id="paint3_linear_407_12875" x1="9.05076" y1="0" x2="9.05076" y2="24.7705" gradientUnits="userSpaceOnUse">
<stop stop-color="#E296AF"/>
<stop offset="1" stop-color="#E296AF" stop-opacity="0"/>
</linearGradient>
<linearGradient id="paint4_linear_407_12875" x1="168.461" y1="150.929" x2="178.015" y2="205.112" gradientUnits="userSpaceOnUse">
<stop stop-color="#592966"/>
<stop offset="1" stop-color="#390950"/>
</linearGradient>
</defs>
</svg>
