<svg width="213" height="298" viewBox="0 0 213 298" fill="none" xmlns="http://www.w3.org/2000/svg">
<rect x="211.706" y="1.07922" width="296" height="210.75" rx="20.5" transform="rotate(90 211.706 1.07922)" fill="white" stroke="#EEF2F5"/>
<rect x="203.456" y="9.57922" width="279" height="194" rx="10" transform="rotate(90 203.456 9.57922)" fill="#EEF2F5"/>
<g clip-path="url(#clip0_389_12611)">
<rect x="8.99976" y="10" width="194" height="278.674" rx="10" fill="#FFC503"/>
<path d="M87.9993 96L104.887 105.75L110.11 105.75L143.5 166.5L102 186L68.4998 129.15L71.1118 125.25V105.75L87.9993 96Z" fill="white"/>
<path d="M126.999 96L143.887 105.75V125.25L146.5 129.15L126.999 146L110.112 125.25V105.75L126.999 96Z" fill="white"/>
<path d="M68.4998 129.15L85.3872 138.9L106 170.5L71.1098 173.02L68.4998 168.15L51.6123 158.4V138.9L68.4998 129.15Z" fill="white"/>
<path d="M146.499 129.15L163.387 138.9V158.4L146.499 168.15L129.612 158.4V138.9L146.499 129.15Z" fill="white"/>
<path d="M126.5 156L146.5 168.15L143.887 173.025V192.525L126.999 202.275L110.112 192.525L104.89 192.52L96.4998 173.025L126.5 156Z" fill="white"/>
<path d="M87.9992 163.275L104.887 173.025V192.525L87.9992 202.275L71.1118 192.525V173.025L87.9992 163.275Z" fill="white"/>
<path d="M107.499 129.15L124.387 138.9V158.4L107.499 168.15L90.6118 158.4V138.9L107.499 129.15Z" fill="white"/>
<path d="M106.5 -4.99988L123.387 4.7501V24.2501L106.5 34L89.6123 24.2501V4.7501L106.5 -4.99988Z" fill="#FFD445"/>
<path d="M145.5 -4.99988L162.387 4.7501V24.2501L145.5 34L128.612 24.2501V4.7501L145.5 -4.99988Z" fill="#FFD445"/>
<path d="M87.0002 28.15L103.888 37.9V57.4L87.0002 67.15L70.1127 57.4V37.9L87.0002 28.15Z" fill="#FFD445"/>
<path d="M165 28.15L181.887 37.9V57.4L165 67.15L148.112 57.4V37.9L165 28.15Z" fill="#FFD445"/>
<path d="M145.5 62.2749L162.387 72.0249V91.5248L145.5 101.275L128.612 91.5248V72.0249L145.5 62.2749Z" fill="#FFD445"/>
<path d="M106.5 62.2749L123.387 72.0249V91.5248L106.5 101.275L89.6123 91.5248V72.0249L106.5 62.2749Z" fill="#FFD445"/>
<path d="M126 28.15L142.887 37.9V57.4L126 67.15L109.112 57.4V37.9L126 28.15Z" fill="#FFD445"/>
<path d="M184.5 62.2747L201.387 72.0246V91.5246L184.5 101.275L167.612 91.5246V72.0246L184.5 62.2747Z" fill="#FFD445"/>
<path d="M164.999 95.4246L181.887 105.175V124.675L164.999 134.424L148.112 124.675V105.175L164.999 95.4246Z" fill="#FFD445"/>
<path d="M184.5 129.55L201.387 139.3V158.8L184.5 168.549L167.612 158.8V139.3L184.5 129.55Z" fill="#FFD445"/>
<path d="M203.999 95.4246L220.887 105.175V124.675L203.999 134.424L187.112 124.675V105.175L203.999 95.4246Z" fill="#FFD445"/>
<path d="M184.5 -5L201.387 4.74998V24.2499L184.5 33.9999L167.612 24.2499V4.74998L184.5 -5Z" fill="#FFD445"/>
<path d="M204 29.1248L220.887 38.8747V58.3747L204 68.1247L187.112 58.3747V38.8747L204 29.1248Z" fill="#FFD445"/>
<path d="M28.4995 129.55L45.3869 139.3V158.8L28.4995 168.55L11.612 158.8V139.3L28.4995 129.55Z" fill="#FFD445"/>
<path d="M47.9995 162.7L64.8869 172.45V191.95L47.9995 201.7L31.112 191.95V172.45L47.9995 162.7Z" fill="#FFD445"/>
<path d="M28.4995 196.825L45.3869 206.575V226.075L28.4995 235.825L11.612 226.075V206.575L28.4995 196.825Z" fill="#FFD445"/>
<path d="M8.99972 162.7L25.8872 172.45V191.95L8.99972 201.7L-7.88774 191.95V172.45L8.99972 162.7Z" fill="#FFD445"/>
<path d="M8.99972 29.1252L25.8872 38.8752V58.3752L8.99972 68.1252L-7.88774 58.3752V38.8752L8.99972 29.1252Z" fill="#FFD445"/>
<path d="M47.9995 29.1252L64.8869 38.8752V58.3752L47.9995 68.1252L31.112 58.3752V38.8752L47.9995 29.1252Z" fill="#FFD445"/>
<path d="M67.4995 62.2751L84.3869 72.0251V91.5251L67.4995 101.275L50.612 91.5251V72.0251L67.4995 62.2751Z" fill="#FFD445"/>
<path d="M47.9995 96.4001L64.8869 106.15V125.65L47.9995 135.4L31.112 125.65V106.15L47.9995 96.4001Z" fill="#FFD445"/>
<path d="M8.99972 96.4001L25.8872 106.15V125.65L8.99972 135.4L-7.88774 125.65V106.15L8.99972 96.4001Z" fill="#FFD445"/>
<path d="M28.4992 62.2751L45.3867 72.0251V91.5251L28.4992 101.275L11.6118 91.5251V72.0251L28.4992 62.2751Z" fill="#FFD445"/>
<path d="M67.4997 196.825L84.3872 206.575V226.075L67.4997 235.825L50.6123 226.075V206.575L67.4997 196.825Z" fill="#FFD445"/>
<path d="M106.5 196.825L123.387 206.575V226.075L106.5 235.825L89.6123 226.075V206.575L106.5 196.825Z" fill="#FFD445"/>
<path d="M47.9997 229.975L64.8872 239.725V259.225L47.9997 268.975L31.1123 259.225V239.725L47.9997 229.975Z" fill="#FFD445"/>
<path d="M125.999 229.975L142.887 239.725V259.225L125.999 268.975L109.112 259.225V239.725L125.999 229.975Z" fill="#FFD445"/>
<path d="M106.5 264.1L123.387 273.85V293.35L106.5 303.1L89.6123 293.35V273.85L106.5 264.1Z" fill="#FFD445"/>
<path d="M67.4997 264.1L84.3872 273.85V293.35L67.4997 303.1L50.6123 293.35V273.85L67.4997 264.1Z" fill="#FFD445"/>
<path d="M87 229.975L103.887 239.725V259.225L87 268.975L70.1125 259.225V239.725L87 229.975Z" fill="#FFD445"/>
<path d="M145.5 264.1L162.387 273.85V293.35L145.5 303.1L128.612 293.35V273.85L145.5 264.1Z" fill="#FFD445"/>
<path d="M184.5 264.1L201.387 273.85V293.35L184.5 303.1L167.612 293.35V273.85L184.5 264.1Z" fill="#FFD445"/>
<path d="M164.999 163.675L181.887 173.425V192.925L164.999 202.675L148.112 192.925V173.425L164.999 163.675Z" fill="#FFD445"/>
<path d="M204 163.675L220.887 173.425V192.925L204 202.675L187.112 192.925V173.425L204 163.675Z" fill="#FFD445"/>
<path d="M145.5 196.825L162.387 206.575V226.075L145.5 235.825L128.612 226.075V206.575L145.5 196.825Z" fill="#FFD445"/>
<path d="M204 230.95L220.887 240.7V260.2L204 269.95L187.112 260.2V240.7L204 230.95Z" fill="#FFD445"/>
<path d="M164.999 230.95L181.887 240.7V260.2L164.999 269.95L148.112 260.2V240.7L164.999 230.95Z" fill="#FFD445"/>
<path d="M184.5 196.825L201.387 206.575V226.075L184.5 235.825L167.612 226.075V206.575L184.5 196.825Z" fill="#FFD445"/>
<path d="M67.5 -5L84.3874 4.74998V24.2499L67.5 33.9999L50.6125 24.2499V4.74998L67.5 -5Z" fill="#FFD445"/>
<path d="M28.4997 -5L45.3872 4.74998V24.2499L28.4997 33.9999L11.6123 24.2499V4.74998L28.4997 -5Z" fill="#FFD445"/>
<path d="M8.99996 230.95L25.8874 240.7V260.2L8.99996 269.95L-7.8875 260.2V240.7L8.99996 230.95Z" fill="#FFD445"/>
<path d="M28.4995 264.1L45.3869 273.85V293.35L28.4995 303.1L11.612 293.35V273.85L28.4995 264.1Z" fill="#FFD445"/>
<path fill-rule="evenodd" clip-rule="evenodd" d="M112.543 126.421C114.76 121.947 120.196 118.73 124.635 119.316C129.005 119.894 130.782 124.063 128.565 128.537C126.137 133.438 118.115 139.037 113.269 142.256C112.117 138.018 110.009 131.535 112.543 126.421Z" fill="url(#paint0_linear_389_12611)"/>
<path fill-rule="evenodd" clip-rule="evenodd" d="M131.034 132.015C135.917 131.357 139.204 134.435 138.289 138.891C137.388 143.278 132.613 147.443 127.73 148.101C122.381 148.822 116.576 144.797 113.252 142.266C118.067 138.638 125.453 132.767 131.034 132.015Z" fill="url(#paint1_linear_389_12611)"/>
<path fill-rule="evenodd" clip-rule="evenodd" d="M83.2729 143.32C78.2896 143.003 72.7855 146.103 71.0738 150.24C69.3888 154.313 72.1112 157.936 77.0946 158.253C82.5524 158.601 91.4122 154.454 96.6232 151.866C93.5286 148.75 88.9681 143.683 83.2729 143.32Z" fill="url(#paint2_linear_389_12611)"/>
<path fill-rule="evenodd" clip-rule="evenodd" d="M78.8722 162.131C75.8605 166.031 76.8825 170.416 81.1997 171.852C85.4496 173.265 91.4432 171.212 94.4548 167.312C97.7532 163.041 97.1705 156 96.6403 151.856C91.0908 154.212 82.314 157.674 78.8722 162.131Z" fill="url(#paint3_linear_389_12611)"/>
<path d="M123.42 179.063L116.465 172.198L120.952 169.607L123.42 179.063Z" fill="url(#paint4_linear_389_12611)"/>
<path fill-rule="evenodd" clip-rule="evenodd" d="M125.055 151.38C129.431 158.96 127.095 168.651 119.773 172.879C112.566 177.04 103.005 174.218 98.6283 166.638C93.8352 158.336 95.8447 143.058 97.3356 134.016C106.12 137.607 120.053 142.717 125.055 151.38Z" fill="url(#paint5_linear_389_12611)"/>
<path fill-rule="evenodd" clip-rule="evenodd" d="M125.409 152.025C125.296 151.809 125.178 151.594 125.055 151.38C124.145 149.804 122.939 148.345 121.522 146.992C120.165 147.38 118.761 147.872 117.356 148.429C114.161 149.698 110.756 151.392 107.542 153.259C104.329 155.125 101.252 157.196 98.7279 159.239C97.9715 159.851 97.2392 160.481 96.5547 161.12C97.0259 163.157 97.6993 165.028 98.6284 166.638C98.7086 166.777 98.7905 166.914 98.8742 167.05C99.6466 166.126 100.812 165 102.37 163.739C104.617 161.921 107.437 160.015 110.449 158.265C113.46 156.516 116.607 154.956 119.493 153.81C121.8 152.894 123.818 152.291 125.409 152.025ZM126.535 154.768C125.039 155.173 123.479 155.711 121.918 156.331C118.723 157.6 115.318 159.294 112.104 161.161C108.891 163.027 105.815 165.098 103.29 167.141C102.367 167.888 101.479 168.661 100.671 169.447C102.016 170.938 103.598 172.141 105.314 173.027C105.796 172.587 106.335 172.124 106.932 171.641C109.179 169.823 111.999 167.917 115.012 166.167C118.022 164.418 121.169 162.858 124.055 161.712C125.187 161.262 126.25 160.888 127.226 160.592C127.349 158.662 127.126 156.686 126.535 154.768ZM95.9117 157.28C96.4433 156.785 97.0502 156.259 97.7325 155.707C99.9793 153.889 102.8 151.983 105.812 150.233C108.823 148.485 111.97 146.924 114.856 145.778C116.192 145.247 117.432 144.822 118.547 144.506C116.612 143.075 114.462 141.777 112.234 140.593C109.181 141.838 105.957 143.454 102.905 145.227C100.322 146.727 97.8277 148.359 95.6371 150.003C95.5789 152.474 95.6491 154.938 95.9117 157.28Z" fill="black"/>
<path d="M95.0645 123.652C94.2647 120.114 93.6253 113.595 97.466 115.827" stroke="black" stroke-width="1.4473" stroke-linecap="round"/>
<path d="M89.3948 126.926C86.7305 124.464 81.405 120.651 81.4176 125.093" stroke="black" stroke-width="1.4473" stroke-linecap="round"/>
<circle cx="97.4476" cy="133.778" r="11.5179" transform="rotate(-30 97.4476 133.778)" fill="url(#paint6_linear_389_12611)"/>
</g>
<rect x="10.9998" y="12" width="190" height="274.674" rx="8" stroke="#FFC503" stroke-width="4"/>
<defs>
<linearGradient id="paint0_linear_389_12611" x1="115.091" y1="138.505" x2="117.745" y2="118.406" gradientUnits="userSpaceOnUse">
<stop stop-color="#FBFDFF"/>
<stop offset="1" stop-color="#E3F0FC"/>
</linearGradient>
<linearGradient id="paint1_linear_389_12611" x1="117.348" y1="141.68" x2="136.891" y2="145.694" gradientUnits="userSpaceOnUse">
<stop stop-color="#FBFDFF"/>
<stop offset="1" stop-color="#E3F0FC"/>
</linearGradient>
<linearGradient id="paint2_linear_389_12611" x1="92.4635" y1="151.568" x2="73.7308" y2="143.818" gradientUnits="userSpaceOnUse">
<stop stop-color="#FBFDFF"/>
<stop offset="1" stop-color="#E3F0FC"/>
</linearGradient>
<linearGradient id="paint3_linear_389_12611" x1="94.0847" y1="155.111" x2="87.7897" y2="174.043" gradientUnits="userSpaceOnUse">
<stop stop-color="#FBFDFF"/>
<stop offset="1" stop-color="#E3F0FC"/>
</linearGradient>
<linearGradient id="paint4_linear_389_12611" x1="123.42" y1="179.063" x2="117.138" y2="168.182" gradientUnits="userSpaceOnUse">
<stop stop-color="#030303"/>
<stop offset="1" stop-color="#922A2A"/>
</linearGradient>
<linearGradient id="paint5_linear_389_12611" x1="101.058" y1="140.33" x2="119.83" y2="172.846" gradientUnits="userSpaceOnUse">
<stop stop-color="#FFCC21"/>
<stop offset="1" stop-color="#FFA903"/>
</linearGradient>
<linearGradient id="paint6_linear_389_12611" x1="103.281" y1="147.989" x2="93.5584" y2="122.261" gradientUnits="userSpaceOnUse">
<stop stop-color="#FFC503"/>
<stop offset="1" stop-color="#FFDD6D"/>
</linearGradient>
<clipPath id="clip0_389_12611">
<rect x="8.99976" y="10" width="194" height="278.674" rx="10" fill="white"/>
</clipPath>
</defs>
</svg>
