<svg width="371" height="425" viewBox="0 0 371 425" fill="none" xmlns="http://www.w3.org/2000/svg">
<path fill-rule="evenodd" clip-rule="evenodd" d="M163.892 25.1031C229.841 13.4745 292.731 57.5101 304.359 123.46L312.421 169.177C313.421 174.852 313.373 180.468 312.415 185.828C313.981 190.943 315.251 196.21 316.204 201.612L341.998 347.899C344.681 363.116 334.521 377.627 319.304 380.31L115.925 416.171C100.708 418.854 86.1967 408.694 83.5135 393.477L57.7193 247.19C56.7664 241.786 56.1588 236.401 55.8808 231.057C53.1488 226.349 51.1835 221.089 50.1833 215.417L42.0468 169.273C30.4597 103.559 74.3381 40.894 140.052 29.3069C146.623 28.1482 152.89 32.5359 154.049 39.1071C152.912 32.5278 157.311 26.2635 163.892 25.1031Z" fill="url(#paint0_linear_407_12927)"/>
<rect x="267.081" y="169.916" width="66.6898" height="73.3588" rx="33.3449" transform="rotate(-10 267.081 169.916)" fill="url(#paint1_linear_407_12927)"/>
<path fill-rule="evenodd" clip-rule="evenodd" d="M157.712 57.1498C91.9041 68.7535 47.9627 131.508 59.5664 197.317L61.138 206.229C61.1378 206.23 61.1375 206.23 61.1372 206.23C43.0011 209.427 30.8913 226.722 34.0891 244.858L35.2472 251.426C38.4451 269.562 55.7397 281.672 73.8758 278.474C75.4908 278.189 77.0581 277.793 78.571 277.294C101.757 324.278 153.887 352.4 208.088 342.843C273.896 331.24 317.837 268.485 306.233 202.677L297.879 155.296C286.275 89.4874 223.52 45.546 157.712 57.1498Z" fill="url(#paint2_linear_407_12927)"/>
<rect x="308.359" y="187.306" width="18.1015" height="24.7705" rx="9.05076" transform="rotate(-10 308.359 187.306)" fill="url(#paint3_linear_407_12927)"/>
<rect width="18.1015" height="24.7705" rx="9.05076" transform="matrix(-0.984808 0.173648 0.173648 0.984808 61.1338 230.899)" fill="url(#paint4_linear_407_12927)"/>
<path d="M306.764 150.826C308.059 150.598 308.926 149.362 308.676 148.071C305.413 131.239 299.094 115.151 290.044 100.649C280.574 85.4762 268.299 72.3369 253.919 61.9815C239.539 51.6262 223.336 44.2576 206.235 40.2965C189.134 36.3353 171.469 35.8593 154.251 38.8954C137.032 41.9315 120.596 48.4204 105.881 57.9916C91.1657 67.5628 78.46 80.0288 68.4889 94.6778C58.5179 109.327 51.4769 125.872 47.7678 143.369C44.2229 160.092 43.788 177.371 46.4783 194.303C46.6847 195.602 47.9221 196.467 49.2176 196.239L126.204 182.664C127.174 182.493 127.939 181.743 128.128 180.776L131.081 165.696C131.48 163.655 134.12 163.071 135.344 164.752L144.981 177.996C145.517 178.732 146.424 179.099 147.321 178.941L180.571 173.078C181.866 172.849 182.731 171.614 182.503 170.318L176.232 134.756C175.768 132.121 179.33 130.84 180.65 133.168L200.383 167.975C200.88 168.852 201.875 169.321 202.868 169.146L306.764 150.826Z" fill="#592966"/>
<rect x="177.061" y="224.486" width="19.5306" height="31.4395" rx="9.7653" transform="rotate(-10 177.061 224.486)" fill="#E296AF"/>
<line x1="121.46" y1="216.396" x2="138.817" y2="213.336" stroke="#390950" stroke-width="3.81085" stroke-linecap="round"/>
<line x1="229.826" y1="197.288" x2="247.183" y2="194.228" stroke="#390950" stroke-width="3.81085" stroke-linecap="round"/>
<line x1="202.149" y1="284.401" x2="201.486" y2="279.632" stroke="#E296AF" stroke-width="19.2573" stroke-linecap="round"/>
<path d="M127.688 224.566V224.566C133.089 215.3 145.521 213.108 153.765 219.968V219.968" stroke="#390950" stroke-width="9.62862" stroke-linecap="round"/>
<path d="M217.771 208.682V208.682C223.171 199.417 235.603 197.225 243.847 204.084V204.084" stroke="#390950" stroke-width="9.62862" stroke-linecap="round"/>
<path fill-rule="evenodd" clip-rule="evenodd" d="M119.84 194.399C129.024 188.407 140.257 186.426 150.936 188.916C152.473 189.274 154.01 188.319 154.369 186.781C154.727 185.244 153.771 183.707 152.234 183.348C140.036 180.504 127.206 182.766 116.716 189.611C115.394 190.474 115.022 192.245 115.884 193.567C116.747 194.889 118.518 195.262 119.84 194.399ZM209.923 178.515C219.106 172.523 230.339 170.542 241.018 173.032C242.556 173.39 244.093 172.435 244.451 170.897C244.81 169.36 243.854 167.823 242.316 167.464C230.119 164.62 217.288 166.883 206.799 173.727C205.476 174.59 205.104 176.361 205.967 177.683C206.829 179.005 208.601 179.378 209.923 178.515Z" fill="#592966"/>
<defs>
<linearGradient id="paint0_linear_407_12927" x1="168.123" y1="118.926" x2="209.83" y2="350.296" gradientUnits="userSpaceOnUse">
<stop stop-color="#592966"/>
<stop offset="1" stop-color="#390950"/>
</linearGradient>
<linearGradient id="paint1_linear_407_12927" x1="267.081" y1="206.596" x2="374.26" y2="206.933" gradientUnits="userSpaceOnUse">
<stop stop-color="#D6538A"/>
<stop offset="1" stop-color="#EFD8D5"/>
</linearGradient>
<linearGradient id="paint2_linear_407_12927" x1="129.919" y1="-4.45886" x2="167.087" y2="210.28" gradientUnits="userSpaceOnUse">
<stop stop-color="#D6538A"/>
<stop offset="1" stop-color="#EFD8D5"/>
</linearGradient>
<linearGradient id="paint3_linear_407_12927" x1="317.41" y1="187.306" x2="317.41" y2="212.077" gradientUnits="userSpaceOnUse">
<stop stop-color="#D6538A"/>
<stop offset="1" stop-color="#D6538A" stop-opacity="0"/>
</linearGradient>
<linearGradient id="paint4_linear_407_12927" x1="9.05076" y1="0" x2="9.05076" y2="24.7705" gradientUnits="userSpaceOnUse">
<stop stop-color="#E296AF"/>
<stop offset="1" stop-color="#E296AF" stop-opacity="0"/>
</linearGradient>
</defs>
</svg>
