<svg width="194" height="279" viewBox="0 0 194 279" fill="none" xmlns="http://www.w3.org/2000/svg">
<g clip-path="url(#clip0_313_1184)">
<rect width="194" height="278.674" rx="10" fill="#FFC503"/>
<path d="M78.9995 86L95.8869 95.75L101.11 95.75L134.5 156.5L92.9999 176L59.4999 119.15L62.112 115.25V95.75L78.9995 86Z" fill="white"/>
<path d="M117.999 86L134.887 95.75V115.25L137.5 119.15L117.999 136L101.112 115.25V95.75L117.999 86Z" fill="white"/>
<path d="M59.5 119.15L76.3874 128.9L96.9999 160.5L62.1099 163.02L59.5 158.15L42.6125 148.4V128.9L59.5 119.15Z" fill="white"/>
<path d="M137.5 119.15L154.387 128.9V148.4L137.5 158.15L120.612 148.4V128.9L137.5 119.15Z" fill="white"/>
<path d="M117.5 146L137.5 158.15L134.887 163.025V182.525L117.999 192.275L101.112 182.525L95.89 182.52L87.4999 163.025L117.5 146Z" fill="white"/>
<path d="M78.9995 153.275L95.8869 163.025V182.525L78.9995 192.275L62.112 182.525V163.025L78.9995 153.275Z" fill="white"/>
<path d="M98.4995 119.15L115.387 128.9V148.4L98.4995 158.15L81.612 148.4V128.9L98.4995 119.15Z" fill="white"/>
<path d="M97.4999 -14.9999L114.387 -5.2499V14.2501L97.4999 24L80.6124 14.2501V-5.2499L97.4999 -14.9999Z" fill="#FFD445"/>
<path d="M136.5 -14.9999L153.387 -5.2499V14.2501L136.5 24L119.612 14.2501V-5.2499L136.5 -14.9999Z" fill="#FFD445"/>
<path d="M78.0005 18.15L94.8879 27.9V47.4L78.0005 57.15L61.113 47.4V27.9L78.0005 18.15Z" fill="#FFD445"/>
<path d="M156 18.15L172.888 27.9V47.4L156 57.15L139.113 47.4V27.9L156 18.15Z" fill="#FFD445"/>
<path d="M136.5 52.2749L153.387 62.0249V81.5248L136.5 91.2748L119.612 81.5248V62.0249L136.5 52.2749Z" fill="#FFD445"/>
<path d="M97.4999 52.2749L114.387 62.0249V81.5248L97.4999 91.2748L80.6124 81.5248V62.0249L97.4999 52.2749Z" fill="#FFD445"/>
<path d="M117 18.15L133.887 27.9V47.4L117 57.15L100.112 47.4V27.9L117 18.15Z" fill="#FFD445"/>
<path d="M175.5 52.2747L192.387 62.0246V81.5246L175.5 91.2746L158.612 81.5246V62.0246L175.5 52.2747Z" fill="#FFD445"/>
<path d="M156 85.4246L172.887 95.1745V114.675L156 124.424L139.112 114.675V95.1745L156 85.4246Z" fill="#FFD445"/>
<path d="M175.5 119.55L192.387 129.3V148.8L175.5 158.549L158.612 148.8V129.3L175.5 119.55Z" fill="#FFD445"/>
<path d="M195 85.4246L211.887 95.1745V114.675L195 124.424L178.112 114.675V95.1745L195 85.4246Z" fill="#FFD445"/>
<path d="M175.5 -15L192.387 -5.25002V14.2499L175.5 23.9999L158.612 14.2499V-5.25002L175.5 -15Z" fill="#FFD445"/>
<path d="M195 19.1248L211.887 28.8747V48.3747L195 58.1247L178.112 48.3747V28.8747L195 19.1248Z" fill="#FFD445"/>
<path d="M19.4997 119.55L36.3871 129.3V148.8L19.4997 158.55L2.61219 148.8L2.61219 129.3L19.4997 119.55Z" fill="#FFD445"/>
<path d="M38.9997 152.7L55.8871 162.45V181.95L38.9997 191.7L22.1122 181.95V162.45L38.9997 152.7Z" fill="#FFD445"/>
<path d="M19.4997 186.825L36.3871 196.575V216.075L19.4997 225.825L2.61219 216.075L2.61219 196.575L19.4997 186.825Z" fill="#FFD445"/>
<path d="M-3.62396e-05 152.7L16.8874 162.45V181.95L-3.62396e-05 191.7L-16.8875 181.95V162.45L-3.62396e-05 152.7Z" fill="#FFD445"/>
<path d="M-3.62396e-05 19.1252L16.8874 28.8752V48.3752L-3.62396e-05 58.1252L-16.8875 48.3752V28.8752L-3.62396e-05 19.1252Z" fill="#FFD445"/>
<path d="M38.9997 19.1252L55.8871 28.8752V48.3752L38.9997 58.1252L22.1122 48.3752V28.8752L38.9997 19.1252Z" fill="#FFD445"/>
<path d="M58.4997 52.2751L75.3871 62.0251V81.5251L58.4997 91.2751L41.6122 81.5251V62.0251L58.4997 52.2751Z" fill="#FFD445"/>
<path d="M38.9997 86.4001L55.8871 96.1501V115.65L38.9997 125.4L22.1122 115.65V96.1501L38.9997 86.4001Z" fill="#FFD445"/>
<path d="M-3.62396e-05 86.4001L16.8874 96.1501V115.65L-3.62396e-05 125.4L-16.8875 115.65V96.1501L-3.62396e-05 86.4001Z" fill="#FFD445"/>
<path d="M19.4994 52.2751L36.3869 62.0251V81.5251L19.4994 91.2751L2.61195 81.5251L2.61195 62.0251L19.4994 52.2751Z" fill="#FFD445"/>
<path d="M58.5 186.825L75.3874 196.575V216.075L58.5 225.825L41.6125 216.075V196.575L58.5 186.825Z" fill="#FFD445"/>
<path d="M97.4999 186.825L114.387 196.575V216.075L97.4999 225.825L80.6124 216.075V196.575L97.4999 186.825Z" fill="#FFD445"/>
<path d="M39 219.975L55.8874 229.725V249.225L39 258.975L22.1125 249.225V229.725L39 219.975Z" fill="#FFD445"/>
<path d="M117 219.975L133.887 229.725V249.225L117 258.975L100.112 249.225V229.725L117 219.975Z" fill="#FFD445"/>
<path d="M97.4999 254.1L114.387 263.85V283.35L97.4999 293.1L80.6124 283.35V263.85L97.4999 254.1Z" fill="#FFD445"/>
<path d="M58.5 254.1L75.3874 263.85V283.35L58.5 293.1L41.6125 283.35V263.85L58.5 254.1Z" fill="#FFD445"/>
<path d="M78.0002 219.975L94.8877 229.725V249.225L78.0002 258.975L61.1127 249.225V229.725L78.0002 219.975Z" fill="#FFD445"/>
<path d="M136.5 254.1L153.387 263.85V283.35L136.5 293.1L119.612 283.35V263.85L136.5 254.1Z" fill="#FFD445"/>
<path d="M175.5 254.1L192.387 263.85V283.35L175.5 293.1L158.612 283.35V263.85L175.5 254.1Z" fill="#FFD445"/>
<path d="M156 153.675L172.887 163.425V182.925L156 192.675L139.112 182.925V163.425L156 153.675Z" fill="#FFD445"/>
<path d="M195 153.675L211.887 163.425V182.925L195 192.675L178.112 182.925V163.425L195 153.675Z" fill="#FFD445"/>
<path d="M136.5 186.825L153.387 196.575V216.075L136.5 225.825L119.612 216.075V196.575L136.5 186.825Z" fill="#FFD445"/>
<path d="M195 220.95L211.887 230.7V250.2L195 259.95L178.112 250.2V230.7L195 220.95Z" fill="#FFD445"/>
<path d="M156 220.95L172.887 230.7V250.2L156 259.95L139.112 250.2V230.7L156 220.95Z" fill="#FFD445"/>
<path d="M175.5 186.825L192.387 196.575V216.075L175.5 225.825L158.612 216.075V196.575L175.5 186.825Z" fill="#FFD445"/>
<path d="M58.5002 -15L75.3877 -5.25002V14.2499L58.5002 23.9999L41.6127 14.2499V-5.25002L58.5002 -15Z" fill="#FFD445"/>
<path d="M19.5 -15L36.3874 -5.25002V14.2499L19.5 23.9999L2.6125 14.2499L2.6125 -5.25002L19.5 -15Z" fill="#FFD445"/>
<path d="M0.000207901 220.95L16.8877 230.7V250.2L0.000207901 259.95L-16.8873 250.2V230.7L0.000207901 220.95Z" fill="#FFD445"/>
<path d="M19.4997 254.1L36.3871 263.85V283.35L19.4997 293.1L2.61219 283.35L2.61219 263.85L19.4997 254.1Z" fill="#FFD445"/>
<path fill-rule="evenodd" clip-rule="evenodd" d="M103.543 116.421C105.76 111.947 111.197 108.73 115.636 109.316C120.005 109.894 121.782 114.063 119.565 118.537C117.137 123.438 109.116 129.037 104.269 132.256C103.118 128.018 101.009 121.535 103.543 116.421Z" fill="url(#paint0_linear_313_1184)"/>
<path fill-rule="evenodd" clip-rule="evenodd" d="M122.034 122.015C126.918 121.357 130.204 124.435 129.289 128.892C128.388 133.279 123.613 137.443 118.73 138.101C113.382 138.822 107.576 134.797 104.252 132.266C109.067 128.638 116.453 122.767 122.034 122.015Z" fill="url(#paint1_linear_313_1184)"/>
<path fill-rule="evenodd" clip-rule="evenodd" d="M74.2731 133.32C69.2898 133.003 63.7858 136.103 62.0741 140.24C60.389 144.313 63.1115 147.936 68.0948 148.253C73.5526 148.601 82.4125 144.454 87.6234 141.866C84.5288 138.75 79.9683 133.683 74.2731 133.32Z" fill="url(#paint2_linear_313_1184)"/>
<path fill-rule="evenodd" clip-rule="evenodd" d="M69.8726 152.131C66.8609 156.031 67.8829 160.416 72.2001 161.852C76.45 163.265 82.4436 161.212 85.4552 157.312C88.7536 153.041 88.1709 146 87.6407 141.856C82.0913 144.212 73.3144 147.674 69.8726 152.131Z" fill="url(#paint3_linear_313_1184)"/>
<path d="M114.421 169.064L107.465 162.198L111.953 159.607L114.421 169.064Z" fill="url(#paint4_linear_313_1184)"/>
<path fill-rule="evenodd" clip-rule="evenodd" d="M116.055 141.38C120.432 148.96 118.095 158.651 110.773 162.879C103.566 167.04 94.005 164.218 89.6286 156.638C84.8356 148.336 86.845 133.058 88.336 124.016C97.1207 127.607 111.054 132.717 116.055 141.38Z" fill="url(#paint5_linear_313_1184)"/>
<path fill-rule="evenodd" clip-rule="evenodd" d="M116.409 142.025C116.296 141.809 116.178 141.594 116.055 141.38C115.145 139.804 113.939 138.345 112.523 136.992C111.165 137.38 109.761 137.872 108.357 138.429C105.162 139.698 101.756 141.392 98.5421 143.259C95.3296 145.125 92.2527 147.196 89.7281 149.239C88.9717 149.851 88.2395 150.481 87.5549 151.12C88.0261 153.157 88.6996 155.028 89.6286 156.638C89.7088 156.777 89.7908 156.914 89.8744 157.05C90.6469 156.126 91.812 155 93.3699 153.739C95.6168 151.921 98.4373 150.015 101.45 148.265C104.46 146.516 107.607 144.956 110.494 143.81C112.8 142.894 114.818 142.291 116.409 142.025ZM117.535 144.768C116.039 145.173 114.479 145.711 112.919 146.331C109.724 147.6 106.318 149.294 103.104 151.161C99.8917 153.027 96.8147 155.098 94.2902 157.141C93.3668 157.888 92.4794 158.661 91.6708 159.447C93.016 160.938 94.598 162.141 96.3146 163.027C96.7961 162.587 97.3353 162.124 97.932 161.641C100.179 159.823 102.999 157.917 106.012 156.167C109.022 154.418 112.17 152.858 115.056 151.712C116.188 151.262 117.25 150.888 118.227 150.592C118.349 148.662 118.126 146.686 117.535 144.768ZM86.912 147.28C87.4436 146.785 88.0505 146.259 88.7327 145.707C90.9796 143.889 93.8001 141.983 96.8125 140.233C99.8231 138.485 102.97 136.924 105.856 135.778C107.192 135.247 108.432 134.822 109.547 134.506C107.612 133.075 105.462 131.777 103.235 130.593C100.181 131.838 96.9571 133.454 93.9049 135.227C91.3226 136.727 88.8279 138.359 86.6374 140.003C86.5792 142.474 86.6493 144.938 86.912 147.28Z" fill="black"/>
<path d="M86.0649 113.652C85.2651 110.114 84.6256 103.595 88.4664 105.827" stroke="black" stroke-width="1.4473" stroke-linecap="round"/>
<path d="M80.3951 116.926C77.7308 114.464 72.4054 110.651 72.418 115.093" stroke="black" stroke-width="1.4473" stroke-linecap="round"/>
<circle cx="88.4479" cy="123.778" r="11.5179" transform="rotate(-30 88.4479 123.778)" fill="url(#paint6_linear_313_1184)"/>
</g>
<rect x="2" y="2" width="190" height="274.674" rx="8" stroke="#FFC503" stroke-width="4"/>
<defs>
<linearGradient id="paint0_linear_313_1184" x1="106.091" y1="128.505" x2="108.745" y2="108.406" gradientUnits="userSpaceOnUse">
<stop stop-color="#FBFDFF"/>
<stop offset="1" stop-color="#E3F0FC"/>
</linearGradient>
<linearGradient id="paint1_linear_313_1184" x1="108.349" y1="131.68" x2="127.892" y2="135.694" gradientUnits="userSpaceOnUse">
<stop stop-color="#FBFDFF"/>
<stop offset="1" stop-color="#E3F0FC"/>
</linearGradient>
<linearGradient id="paint2_linear_313_1184" x1="83.4637" y1="141.568" x2="64.731" y2="133.818" gradientUnits="userSpaceOnUse">
<stop stop-color="#FBFDFF"/>
<stop offset="1" stop-color="#E3F0FC"/>
</linearGradient>
<linearGradient id="paint3_linear_313_1184" x1="85.0851" y1="145.111" x2="78.7901" y2="164.043" gradientUnits="userSpaceOnUse">
<stop stop-color="#FBFDFF"/>
<stop offset="1" stop-color="#E3F0FC"/>
</linearGradient>
<linearGradient id="paint4_linear_313_1184" x1="114.421" y1="169.064" x2="108.138" y2="158.182" gradientUnits="userSpaceOnUse">
<stop stop-color="#030303"/>
<stop offset="1" stop-color="#922A2A"/>
</linearGradient>
<linearGradient id="paint5_linear_313_1184" x1="92.0579" y1="130.33" x2="110.831" y2="162.846" gradientUnits="userSpaceOnUse">
<stop stop-color="#FFCC21"/>
<stop offset="1" stop-color="#FFA903"/>
</linearGradient>
<linearGradient id="paint6_linear_313_1184" x1="94.2817" y1="137.989" x2="84.5588" y2="112.261" gradientUnits="userSpaceOnUse">
<stop stop-color="#FFC503"/>
<stop offset="1" stop-color="#FFDD6D"/>
</linearGradient>
<clipPath id="clip0_313_1184">
<rect width="194" height="278.674" rx="10" fill="white"/>
</clipPath>
</defs>
</svg>
