<svg width="363" height="386" viewBox="0 0 363 386" fill="none" xmlns="http://www.w3.org/2000/svg">
<path fill-rule="evenodd" clip-rule="evenodd" d="M30.9873 183.527C18.2788 111.453 66.4036 42.7239 138.477 30.0154C145.684 28.7445 152.557 33.557 153.828 40.7644L161.288 83.0706L161.289 83.0704L153.829 40.7642C152.558 33.5569 157.371 26.684 164.578 25.4131C236.651 12.7046 305.38 60.8294 318.089 132.903L325.519 175.038L310.899 177.616C311.955 181.491 312.843 185.449 313.554 189.482L324.234 250.053C326.087 260.559 324.977 270.902 321.505 280.226L329.823 278.759C330.577 278.626 331.296 279.13 331.428 279.883C332.757 287.42 327.725 294.608 320.188 295.937L311.396 297.487C311.322 297.574 311.248 297.661 311.174 297.748L335.787 293.408C337.906 293.034 339.928 294.449 340.302 296.569C344.039 317.767 329.885 337.981 308.687 341.719L172.831 365.674L172.793 365.46L110.858 376.381C89.6597 380.119 69.4453 365.964 65.7075 344.766C65.3337 342.646 66.7491 340.625 68.8689 340.251L84.3061 337.529C76.769 338.858 69.5816 333.825 68.2526 326.288C68.1197 325.535 68.623 324.816 69.3767 324.683L78.6348 323.051C72.183 315.477 67.6023 306.137 65.7498 295.631L55.0696 235.06C54.3584 231.027 53.8396 227.004 53.5065 223.001L38.4169 225.662L30.9873 183.527Z" fill="url(#paint0_linear_407_12978)"/>
<rect x="266.659" y="170.422" width="66.6898" height="73.3588" rx="33.3449" transform="rotate(-10 266.659 170.422)" fill="url(#paint1_linear_407_12978)"/>
<path fill-rule="evenodd" clip-rule="evenodd" d="M157.289 57.6552C91.4812 69.2589 47.5398 132.014 59.1436 197.822L60.7152 206.735C60.7149 206.735 60.7146 206.735 60.7143 206.735C42.5782 209.933 30.4684 227.228 33.6663 245.364L34.8243 251.931C38.0222 270.067 55.3169 282.177 73.453 278.979C75.068 278.695 76.6352 278.298 78.1481 277.799C101.334 324.784 153.464 352.906 207.665 343.349C273.473 331.745 317.414 268.99 305.811 203.182L297.456 155.801C285.852 89.9927 223.098 46.0514 157.289 57.6552Z" fill="url(#paint2_linear_407_12978)"/>
<rect x="307.937" y="187.812" width="18.1015" height="24.7705" rx="9.05076" transform="rotate(-10 307.937 187.812)" fill="url(#paint3_linear_407_12978)"/>
<rect width="18.1015" height="24.7705" rx="9.05076" transform="matrix(-0.984808 0.173648 0.173648 0.984808 60.7109 231.405)" fill="url(#paint4_linear_407_12978)"/>
<path fill-rule="evenodd" clip-rule="evenodd" d="M119.417 194.904C128.601 188.912 139.834 186.931 150.513 189.421C152.05 189.78 153.587 188.824 153.946 187.287C154.304 185.749 153.349 184.212 151.811 183.854C139.613 181.01 126.783 183.272 116.293 190.117C114.971 190.979 114.599 192.75 115.461 194.073C116.324 195.395 118.095 195.767 119.417 194.904ZM209.5 179.021C218.683 173.028 229.916 171.048 240.595 173.538C242.133 173.896 243.67 172.94 244.028 171.403C244.387 169.865 243.431 168.328 241.894 167.97C229.696 165.126 216.865 167.388 206.376 174.233C205.054 175.095 204.681 176.867 205.544 178.189C206.407 179.511 208.178 179.883 209.5 179.021Z" fill="#592966"/>
<path d="M306.341 151.332C307.637 151.104 308.504 149.868 308.253 148.576C304.99 131.745 298.672 115.657 289.621 101.155C280.151 85.9818 267.876 72.8425 253.496 62.4872C239.116 52.1318 222.913 44.7632 205.812 40.8021C188.711 36.841 171.046 36.3649 153.828 39.401C136.609 42.4371 120.173 48.926 105.458 58.4972C90.7428 68.0684 78.0371 80.5344 68.0661 95.1835C58.0951 109.833 51.054 126.378 47.345 143.875C43.8 160.597 43.3651 177.876 46.0554 194.809C46.2618 196.108 47.4993 196.973 48.7947 196.744L125.781 183.17C126.751 182.999 127.516 182.248 127.705 181.282L130.658 166.202C131.058 164.161 133.698 163.576 134.921 165.258L144.558 178.502C145.094 179.238 146.002 179.604 146.898 179.446L180.148 173.583C181.443 173.355 182.308 172.119 182.08 170.824L175.809 135.261C175.345 132.627 178.908 131.346 180.227 133.673L199.96 168.481C200.457 169.358 201.453 169.827 202.445 169.652L306.341 151.332Z" fill="#592966"/>
<rect x="176.637" y="224.991" width="19.5306" height="31.4395" rx="9.7653" transform="rotate(-10 176.637 224.991)" fill="#E296AF"/>
<path d="M127.264 225.072V225.072C132.664 215.806 145.096 213.614 153.34 220.474V220.474" stroke="#390950" stroke-width="9.62862" stroke-linecap="round"/>
<path d="M217.346 209.188V209.188C222.746 199.922 235.178 197.73 243.422 204.59V204.59" stroke="#390950" stroke-width="9.62862" stroke-linecap="round"/>
<path d="M172.516 223.559C175.472 240.328 163.009 256.901 144.154 260.225C125.3 263.55 107.919 252.24 104.962 235.47C103.389 226.548 102.278 220.222 102.013 215.537C101.747 210.841 102.383 208.393 103.709 206.793C105.097 205.119 107.654 203.851 112.625 202.637C116.297 201.739 120.935 200.943 126.845 199.927C128.854 199.582 131.009 199.212 133.324 198.804C135.638 198.396 137.791 198.006 139.796 197.644C145.697 196.576 150.328 195.739 154.086 195.326C159.172 194.767 162.009 195.083 163.885 196.182C165.679 197.232 167.113 199.315 168.47 203.819C169.823 208.311 170.942 214.637 172.516 223.559Z" fill="url(#paint5_linear_407_12978)" fill-opacity="0.4" stroke="#B28DB0" stroke-width="4.76356"/>
<path d="M267.277 206.85C270.234 223.619 257.77 240.192 238.916 243.516C220.061 246.841 202.681 235.531 199.724 218.761C198.151 209.84 197.04 203.513 196.775 198.828C196.509 194.132 197.144 191.684 198.47 190.084C199.858 188.41 202.416 187.142 207.386 185.928C211.059 185.03 215.697 184.234 221.607 183.218C223.615 182.873 225.771 182.503 228.086 182.095C230.4 181.687 232.552 181.297 234.558 180.935C240.459 179.867 245.089 179.03 248.847 178.617C253.933 178.058 256.77 178.374 258.647 179.473C260.441 180.523 261.875 182.606 263.232 187.11C264.585 191.603 265.704 197.928 267.277 206.85Z" fill="url(#paint6_linear_407_12978)" fill-opacity="0.4" stroke="#B28DB0" stroke-width="4.76356"/>
<path d="M171.782 216.657C177.033 211.388 191.491 208.499 198.053 212.025" stroke="#B28DB0" stroke-width="4.76356" stroke-linecap="round"/>
<line x1="201.726" y1="284.906" x2="201.063" y2="280.138" stroke="#E296AF" stroke-width="19.2573" stroke-linecap="round"/>
<defs>
<linearGradient id="paint0_linear_407_12978" x1="165.962" y1="109.575" x2="203.103" y2="316.098" gradientUnits="userSpaceOnUse">
<stop stop-color="#592966"/>
<stop offset="1" stop-color="#390950"/>
</linearGradient>
<linearGradient id="paint1_linear_407_12978" x1="266.659" y1="207.101" x2="373.838" y2="207.438" gradientUnits="userSpaceOnUse">
<stop stop-color="#D6538A"/>
<stop offset="1" stop-color="#EFD8D5"/>
</linearGradient>
<linearGradient id="paint2_linear_407_12978" x1="129.496" y1="-3.95349" x2="166.664" y2="210.785" gradientUnits="userSpaceOnUse">
<stop stop-color="#D6538A"/>
<stop offset="1" stop-color="#EFD8D5"/>
</linearGradient>
<linearGradient id="paint3_linear_407_12978" x1="316.987" y1="187.812" x2="316.987" y2="212.583" gradientUnits="userSpaceOnUse">
<stop stop-color="#D6538A"/>
<stop offset="1" stop-color="#D6538A" stop-opacity="0"/>
</linearGradient>
<linearGradient id="paint4_linear_407_12978" x1="9.05076" y1="0" x2="9.05076" y2="24.7705" gradientUnits="userSpaceOnUse">
<stop stop-color="#E296AF"/>
<stop offset="1" stop-color="#E296AF" stop-opacity="0"/>
</linearGradient>
<linearGradient id="paint5_linear_407_12978" x1="132.91" y1="196.458" x2="144.568" y2="262.571" gradientUnits="userSpaceOnUse">
<stop stop-color="white"/>
<stop offset="1" stop-color="white" stop-opacity="0"/>
</linearGradient>
<linearGradient id="paint6_linear_407_12978" x1="227.672" y1="179.749" x2="239.329" y2="245.862" gradientUnits="userSpaceOnUse">
<stop stop-color="white"/>
<stop offset="1" stop-color="white" stop-opacity="0"/>
</linearGradient>
</defs>
</svg>
