<svg width="391" height="438" viewBox="0 0 391 438" fill="none" xmlns="http://www.w3.org/2000/svg">
<path d="M157.026 78.6874C162.965 45.006 195.083 22.5164 228.765 28.4553C262.446 34.3942 284.936 66.5128 278.997 100.194L256.332 228.733C250.393 262.414 218.275 284.904 184.593 278.965C150.912 273.026 128.422 240.907 134.361 207.226L157.026 78.6874Z" fill="url(#paint0_linear_407_12951)"/>
<path fill-rule="evenodd" clip-rule="evenodd" d="M180.44 63.8486C128.623 54.7118 79.2094 89.3113 70.0725 141.129L52.7017 239.644C43.5649 291.461 78.1643 340.874 129.982 350.011L199.789 362.32C197.841 364.935 196.458 368.032 195.853 371.461C191.711 394.952 207.396 417.353 230.887 421.495L248.401 424.583C281.564 430.43 313.188 408.287 319.036 375.123L319.698 371.37L258.665 360.609C290.331 349.689 315.278 322.366 321.507 287.041L338.878 188.526C348.015 136.709 313.415 87.2957 261.598 78.1589L180.44 63.8486Z" fill="url(#paint1_linear_407_12951)"/>
<rect x="281.82" y="235.059" width="66.6898" height="73.3588" rx="33.3449" transform="rotate(10 281.82 235.059)" fill="url(#paint2_linear_407_12951)"/>
<path fill-rule="evenodd" clip-rule="evenodd" d="M217.616 91.6864C151.808 80.0827 89.0528 124.024 77.449 189.832L75.8774 198.745C75.877 198.745 75.8767 198.745 75.8764 198.745C57.7402 195.547 40.4456 207.657 37.2477 225.793L36.0897 232.361C32.8918 250.497 45.0016 267.792 63.1377 270.99C64.7528 271.274 66.3613 271.438 67.9537 271.486C73.6718 323.568 113.039 367.823 167.24 377.38C233.048 388.984 295.803 345.042 307.407 279.234L315.762 231.853C327.365 166.045 283.424 103.29 217.616 91.6864Z" fill="url(#paint3_linear_407_12951)"/>
<rect x="314.662" y="265.518" width="18.1015" height="24.7705" rx="9.05076" transform="rotate(10 314.662 265.518)" fill="url(#paint4_linear_407_12951)"/>
<rect width="18.1015" height="24.7705" rx="9.05076" transform="matrix(-0.984808 -0.173648 -0.173648 0.984808 67.4355 221.926)" fill="url(#paint5_linear_407_12951)"/>
<rect x="178.564" y="255.548" width="19.5306" height="31.4395" rx="9.7653" transform="rotate(10 178.564 255.548)" fill="#E296AF"/>
<path fill-rule="evenodd" clip-rule="evenodd" d="M327.008 192.753C333.925 153.526 311.192 115.93 274.908 102.955C274.725 102.766 274.541 102.576 274.355 102.388C267.879 95.8112 259.825 90.0798 250.652 85.5211C241.479 80.9624 231.368 77.6655 220.895 75.8189C210.422 73.9722 199.793 73.6119 189.614 74.7584C179.435 75.9049 169.906 78.5359 161.571 82.5011C161.394 82.5856 161.217 82.6706 161.04 82.7562C121.99 82.1637 87.1769 109.969 80.1775 149.665L79.0992 155.78L44.9382 149.757C42.8184 149.383 40.7969 150.798 40.4232 152.918C36.6854 174.116 50.8397 194.331 72.0378 198.068L99.332 202.881L107.777 204.37C136.794 209.487 164.466 190.111 169.582 161.093L173.603 138.292C173.719 138.231 173.836 138.17 173.954 138.11C183.99 132.967 197.142 131.126 210.487 133.479C223.833 135.832 235.562 142.061 243.234 150.326C243.324 150.423 243.413 150.52 243.502 150.617L239.481 173.418C234.364 202.436 253.74 230.107 282.758 235.224L291.202 236.713L311.048 240.212L318.496 241.526C339.694 245.263 359.909 231.109 363.647 209.911C364.02 207.791 362.605 205.77 360.485 205.396L325.856 199.29L327.008 192.753Z" fill="#592966"/>
<line x1="181.647" y1="320.431" x2="182.655" y2="315.723" stroke="#E296AF" stroke-width="19.2572" stroke-linecap="round"/>
<path d="M132.138 238.737V238.737C140.382 231.877 152.813 234.069 158.214 243.335V243.335" stroke="#390950" stroke-width="9.62862" stroke-linecap="round"/>
<path d="M222.22 254.621V254.621C230.464 247.761 242.895 249.953 248.296 259.219V259.219" stroke="#390950" stroke-width="9.62862" stroke-linecap="round"/>
<path fill-rule="evenodd" clip-rule="evenodd" d="M225.167 223.589C235.846 221.099 247.079 223.08 256.263 229.072C257.585 229.935 259.356 229.563 260.219 228.24C261.081 226.918 260.709 225.147 259.387 224.284C248.897 217.44 236.067 215.178 223.869 218.022C222.331 218.38 221.376 219.917 221.734 221.455C222.093 222.992 223.63 223.948 225.167 223.589ZM135.085 207.705C145.764 205.215 156.997 207.196 166.18 213.188C167.502 214.051 169.273 213.679 170.136 212.356C170.999 211.034 170.626 209.263 169.304 208.4C158.815 201.556 145.984 199.294 133.786 202.138C132.249 202.496 131.293 204.033 131.652 205.571C132.01 207.108 133.547 208.064 135.085 207.705Z" fill="#592966"/>
<defs>
<linearGradient id="paint0_linear_407_12951" x1="228.765" y1="28.4553" x2="211.518" y2="126.267" gradientUnits="userSpaceOnUse">
<stop stop-color="#592966"/>
<stop offset="1" stop-color="#390950"/>
</linearGradient>
<linearGradient id="paint1_linear_407_12951" x1="200.981" y1="214.693" x2="166.517" y2="410.144" gradientUnits="userSpaceOnUse">
<stop stop-color="#592966"/>
<stop offset="1" stop-color="#390950"/>
</linearGradient>
<linearGradient id="paint2_linear_407_12951" x1="281.82" y1="271.738" x2="388.999" y2="272.075" gradientUnits="userSpaceOnUse">
<stop stop-color="#D6538A"/>
<stop offset="1" stop-color="#EFD8D5"/>
</linearGradient>
<linearGradient id="paint3_linear_407_12951" x1="212.57" y1="24.2873" x2="174.051" y2="238.788" gradientUnits="userSpaceOnUse">
<stop stop-color="#D6538A"/>
<stop offset="1" stop-color="#EFD8D5"/>
</linearGradient>
<linearGradient id="paint4_linear_407_12951" x1="323.713" y1="265.518" x2="323.713" y2="290.289" gradientUnits="userSpaceOnUse">
<stop stop-color="#D6538A"/>
<stop offset="1" stop-color="#D6538A" stop-opacity="0"/>
</linearGradient>
<linearGradient id="paint5_linear_407_12951" x1="9.05076" y1="0" x2="9.05076" y2="24.7705" gradientUnits="userSpaceOnUse">
<stop stop-color="#E296AF"/>
<stop offset="1" stop-color="#E296AF" stop-opacity="0"/>
</linearGradient>
</defs>
</svg>
