<svg width="360" height="361" viewBox="0 0 360 361" fill="none" xmlns="http://www.w3.org/2000/svg">
<path d="M60.286 90.5748C68.7375 42.6437 114.445 10.6392 162.376 19.0907L252.447 34.9727C300.378 43.4242 332.382 89.1314 323.931 137.063L314.253 191.949C309.684 217.858 284.978 235.158 259.069 230.59L89.248 200.646C63.3393 196.077 46.0395 171.371 50.6079 145.462L60.286 90.5748Z" fill="#592966"/>
<rect x="267.978" y="191.045" width="66.6898" height="73.3588" rx="33.3449" transform="rotate(10 267.978 191.045)" fill="url(#paint0_linear_407_12898)"/>
<path fill-rule="evenodd" clip-rule="evenodd" d="M203.773 47.673C137.965 36.0693 75.2099 80.0107 63.6061 145.819L62.0346 154.732C43.8985 151.534 26.6038 163.644 23.4059 181.78L22.2479 188.348C19.05 206.484 31.1598 223.778 49.2959 226.976C50.9107 227.261 52.5188 227.424 54.1108 227.473C59.829 279.554 99.1965 323.809 153.397 333.367C219.206 344.97 281.96 301.029 293.564 235.221L301.919 187.84C313.522 122.032 269.581 59.2768 203.773 47.673Z" fill="url(#paint1_linear_407_12898)"/>
<rect x="300.82" y="221.505" width="18.1015" height="24.7705" rx="9.05076" transform="rotate(10 300.82 221.505)" fill="url(#paint2_linear_407_12898)"/>
<rect width="18.1015" height="24.7705" rx="9.05076" transform="matrix(-0.984808 -0.173648 -0.173648 0.984808 53.5928 177.913)" fill="url(#paint3_linear_407_12898)"/>
<rect x="164.72" y="211.535" width="19.5306" height="31.4395" rx="9.7653" transform="rotate(10 164.72 211.535)" fill="#E296AF"/>
<path fill-rule="evenodd" clip-rule="evenodd" d="M59.6842 102.218C51.9407 99.2163 47.1388 91.0734 48.6357 82.5843C48.8059 81.6186 49.7268 80.9738 50.6925 81.144L63.5036 83.403C64.313 79.6867 66.0351 76.385 68.3905 73.6936C82.6567 47.2263 112.728 31.6193 143.959 37.1262L166.711 41.1381C167.471 41.272 168.156 41.579 168.735 42.0113C169.426 41.8028 170.175 41.7488 170.934 41.8827L262.647 58.0541C292.239 63.272 314.369 85.9456 320.314 113.618C323.519 118.024 325.082 123.615 324.3 129.388L335.234 131.316C336.2 131.487 336.845 132.408 336.674 133.373C335.266 141.358 328.726 147.15 321.044 147.953L320.926 148.625L338.539 151.731C340.47 152.071 341.76 153.913 341.419 155.845C338.882 170.234 328.012 181.061 314.646 184.239L312.075 198.821L302.223 197.084C295.25 195.854 290.355 189.762 290.412 182.909L284.14 181.803L284.119 181.799L269.576 179.235L201.554 167.241C176.512 162.825 158.229 142.6 155.158 118.641C144.124 139.696 120.627 152.332 96.0054 148.612L96.0023 148.629L77.0423 145.286C74.752 151.745 68.0688 155.796 61.0953 154.567L51.2438 152.829L53.6834 138.994C41.1349 131.737 33.8288 117.181 36.492 102.078C36.8325 100.146 38.6743 98.8567 40.6057 99.1972L59.6255 102.551L59.6842 102.218Z" fill="#592966"/>
<path fill-rule="evenodd" clip-rule="evenodd" d="M263.372 94.4596C264.338 94.6299 264.983 95.5507 264.813 96.5164C263.11 106.173 253.901 112.621 244.244 110.919L221.385 106.888L224.777 87.6541L263.372 94.4596ZM283.564 117.852C285.496 118.193 286.785 120.034 286.445 121.966C283.039 141.28 264.622 154.176 245.308 150.77L214.602 145.356L221.385 106.888L283.564 117.852Z" fill="url(#paint4_linear_407_12898)"/>
<line x1="167.806" y1="276.417" x2="168.813" y2="271.71" stroke="#E296AF" stroke-width="19.2572" stroke-linecap="round"/>
<path d="M118.298 194.724V194.724C126.542 187.864 138.974 190.056 144.374 199.322V199.322" stroke="#390950" stroke-width="9.62862" stroke-linecap="round"/>
<path d="M208.38 210.607V210.607C216.624 203.748 229.056 205.94 234.456 215.205V215.205" stroke="#390950" stroke-width="9.62862" stroke-linecap="round"/>
<path fill-rule="evenodd" clip-rule="evenodd" d="M211.132 184.99C221.304 182.618 232.004 184.505 240.751 190.213C242.956 191.651 245.909 191.03 247.348 188.826C248.786 186.621 248.165 183.668 245.961 182.23C235.035 175.101 221.672 172.744 208.967 175.707C206.403 176.304 204.81 178.867 205.408 181.431C206.005 183.994 208.568 185.588 211.132 184.99ZM121.049 169.106C131.221 166.734 141.921 168.621 150.669 174.329C152.873 175.767 155.827 175.146 157.265 172.942C158.704 170.737 158.083 167.784 155.878 166.346C144.953 159.217 131.589 156.86 118.885 159.823C116.321 160.42 114.727 162.983 115.325 165.547C115.923 168.11 118.486 169.704 121.049 169.106Z" fill="#592966"/>
<defs>
<linearGradient id="paint0_linear_407_12898" x1="267.978" y1="227.725" x2="375.157" y2="228.062" gradientUnits="userSpaceOnUse">
<stop stop-color="#D6538A"/>
<stop offset="1" stop-color="#EFD8D5"/>
</linearGradient>
<linearGradient id="paint1_linear_407_12898" x1="198.727" y1="-19.726" x2="160.209" y2="194.775" gradientUnits="userSpaceOnUse">
<stop stop-color="#D6538A"/>
<stop offset="1" stop-color="#EFD8D5"/>
</linearGradient>
<linearGradient id="paint2_linear_407_12898" x1="309.871" y1="221.505" x2="309.871" y2="246.276" gradientUnits="userSpaceOnUse">
<stop stop-color="#D6538A"/>
<stop offset="1" stop-color="#D6538A" stop-opacity="0"/>
</linearGradient>
<linearGradient id="paint3_linear_407_12898" x1="9.05076" y1="0" x2="9.05076" y2="24.7705" gradientUnits="userSpaceOnUse">
<stop stop-color="#E296AF"/>
<stop offset="1" stop-color="#E296AF" stop-opacity="0"/>
</linearGradient>
<linearGradient id="paint4_linear_407_12898" x1="224.776" y1="87.6541" x2="290.453" y2="99.2346" gradientUnits="userSpaceOnUse">
<stop stop-color="#592966"/>
<stop offset="1" stop-color="#390950"/>
</linearGradient>
</defs>
</svg>
