<svg width="370" height="374" viewBox="0 0 370 374" fill="none" xmlns="http://www.w3.org/2000/svg">
<path fill-rule="evenodd" clip-rule="evenodd" d="M157.952 18.3349C106.134 9.19811 56.7211 43.7976 47.5843 95.615L33.3567 176.304L176.907 201.615L320.457 226.927L334.685 146.239C343.822 94.4212 309.222 45.008 257.405 35.8712L221.752 29.5846C214 28.2177 206.607 33.3763 205.208 41.1144C206.54 33.3645 201.357 25.9884 193.605 24.6215L157.952 18.3349Z" fill="url(#paint0_linear_407_12850)"/>
<rect x="266.728" y="202.458" width="66.6898" height="73.3588" rx="33.3449" transform="rotate(10 266.728 202.458)" fill="url(#paint1_linear_407_12850)"/>
<path fill-rule="evenodd" clip-rule="evenodd" d="M202.524 59.0859C136.716 47.4821 73.9609 91.4235 62.3571 157.232L60.7855 166.145C42.6494 162.947 25.3548 175.057 22.1569 193.193L20.9989 199.761C17.801 217.897 29.9108 235.191 48.0469 238.389C49.6617 238.674 51.2697 238.837 52.8618 238.886C58.58 290.967 97.9475 335.222 152.148 344.779C217.956 356.383 280.711 312.442 292.315 246.634L300.67 199.253C312.273 133.444 268.332 70.6896 202.524 59.0859Z" fill="url(#paint2_linear_407_12850)"/>
<rect x="299.571" y="232.918" width="18.1015" height="24.7705" rx="9.05076" transform="rotate(10 299.571 232.918)" fill="url(#paint3_linear_407_12850)"/>
<rect width="18.1015" height="24.7705" rx="9.05076" transform="matrix(-0.984808 -0.173648 -0.173648 0.984808 52.3438 189.325)" fill="url(#paint4_linear_407_12850)"/>
<path fill-rule="evenodd" clip-rule="evenodd" d="M118.373 44.2479C92.5624 39.6967 67.9493 56.9311 63.3981 82.7418C61.5535 93.2033 68.5388 103.179 79.0003 105.024L181.123 123.031C177.148 151.354 196.308 177.949 224.698 182.955L278.177 192.384L278.177 192.385L308.883 197.799C328.197 201.204 346.615 188.308 350.02 168.995C350.361 167.063 349.071 165.221 347.14 164.881L332.811 162.354L334.093 155.083C340.968 116.09 314.932 78.9066 275.94 72.0312L268.272 70.6791L268.2 70.6663L118.373 44.2479Z" fill="#592966"/>
<rect x="163.471" y="222.948" width="19.5306" height="31.4395" rx="9.7653" transform="rotate(10 163.471 222.948)" fill="#E296AF"/>
<path d="M47.8457 94.1334C51.1734 75.261 69.1702 62.6596 88.0425 65.9873C90.1562 66.36 91.5676 68.3756 91.1949 70.4893L76.4014 154.387C75.0309 162.16 67.6189 167.35 59.8463 165.979L35.9212 161.761L47.8457 94.1334Z" fill="#592966"/>
<line x1="166.555" y1="287.83" x2="167.562" y2="283.122" stroke="#E296AF" stroke-width="19.2572" stroke-linecap="round"/>
<path d="M117.048 206.136V206.136C125.292 199.277 137.724 201.469 143.124 210.734V210.734" stroke="#390950" stroke-width="9.62862" stroke-linecap="round"/>
<path d="M207.13 222.02V222.02C215.374 215.16 227.806 217.352 233.206 226.618V226.618" stroke="#390950" stroke-width="9.62862" stroke-linecap="round"/>
<path fill-rule="evenodd" clip-rule="evenodd" d="M209.882 196.403C220.054 194.031 230.754 195.917 239.501 201.625C241.706 203.064 244.659 202.443 246.098 200.238C247.536 198.034 246.915 195.081 244.711 193.642C233.785 186.513 220.422 184.157 207.717 187.119C205.153 187.717 203.56 190.28 204.158 192.843C204.755 195.407 207.318 197 209.882 196.403ZM119.799 180.519C129.971 178.147 140.671 180.033 149.419 185.741C151.623 187.18 154.577 186.559 156.015 184.354C157.454 182.15 156.833 179.197 154.628 177.758C143.703 170.629 130.339 168.273 117.635 171.235C115.071 171.833 113.477 174.396 114.075 176.959C114.673 179.523 117.236 181.116 119.799 180.519Z" fill="#592966"/>
<defs>
<linearGradient id="paint0_linear_407_12850" x1="179.016" y1="189.653" x2="176.907" y2="201.615" gradientUnits="userSpaceOnUse">
<stop stop-color="#592966"/>
<stop offset="1" stop-color="#390950"/>
</linearGradient>
<linearGradient id="paint1_linear_407_12850" x1="266.728" y1="239.138" x2="373.907" y2="239.475" gradientUnits="userSpaceOnUse">
<stop stop-color="#D6538A"/>
<stop offset="1" stop-color="#EFD8D5"/>
</linearGradient>
<linearGradient id="paint2_linear_407_12850" x1="197.478" y1="-8.31312" x2="158.96" y2="206.188" gradientUnits="userSpaceOnUse">
<stop stop-color="#D6538A"/>
<stop offset="1" stop-color="#EFD8D5"/>
</linearGradient>
<linearGradient id="paint3_linear_407_12850" x1="308.622" y1="232.918" x2="308.622" y2="257.689" gradientUnits="userSpaceOnUse">
<stop stop-color="#D6538A"/>
<stop offset="1" stop-color="#D6538A" stop-opacity="0"/>
</linearGradient>
<linearGradient id="paint4_linear_407_12850" x1="9.05076" y1="0" x2="9.05076" y2="24.7705" gradientUnits="userSpaceOnUse">
<stop stop-color="#E296AF"/>
<stop offset="1" stop-color="#E296AF" stop-opacity="0"/>
</linearGradient>
</defs>
</svg>
