<svg width="159" height="141" viewBox="0 0 159 141" fill="none" xmlns="http://www.w3.org/2000/svg">
<path fill-rule="evenodd" clip-rule="evenodd" d="M143.862 14.876C135.47 6.46221 124.346 1.32693 112.498 0.397747C100.651 -0.531433 88.8627 2.80676 79.2616 9.80932C69.1889 2.31728 56.6516 -1.07997 44.1743 0.301696C31.6971 1.68336 20.2068 7.74131 12.0172 17.2556C3.82772 26.7699 -0.452702 39.0339 0.0379636 51.5778C0.528629 64.1217 5.75393 76.0138 14.6616 84.8593L63.8241 134.101C67.9409 138.153 73.4855 140.423 79.2616 140.423C85.0377 140.423 90.5823 138.153 94.6991 134.101L143.862 84.8593C153.105 75.5593 158.293 62.9798 158.293 49.8677C158.293 36.7555 153.105 24.176 143.862 14.876ZM104.674 101.959L104.674 101.959L103.012 101.959C103.012 101.959 103.012 101.959 103.012 101.959H104.674ZM55.5117 101.959H53.9508L53.9506 101.959L55.5117 101.959C55.5117 101.959 55.5117 101.959 55.5117 101.959Z" fill="url(#paint0_linear_535_12844)"/>
<rect x="13.5828" y="27.2831" width="22.2537" height="14.0741" rx="7.03704" transform="rotate(-40.524 13.5828 27.2831)" fill="url(#paint1_linear_535_12844)"/>
<path d="M49.4252 16.3927C55.6925 16.3713 70.5406 18.9325 79.7943 29.3482" stroke="url(#paint2_linear_535_12844)" stroke-width="11.7284" stroke-linecap="round"/>
<defs>
<linearGradient id="paint0_linear_535_12844" x1="79.1466" y1="0" x2="79.1466" y2="140.423" gradientUnits="userSpaceOnUse">
<stop stop-color="#D6538A"/>
<stop offset="1" stop-color="#F24646"/>
</linearGradient>
<linearGradient id="paint1_linear_535_12844" x1="24.7096" y1="27.2831" x2="24.7096" y2="41.3572" gradientUnits="userSpaceOnUse">
<stop stop-color="white"/>
<stop offset="1" stop-color="white" stop-opacity="0"/>
</linearGradient>
<linearGradient id="paint2_linear_535_12844" x1="64.9413" y1="17.2582" x2="61.0827" y2="26.8973" gradientUnits="userSpaceOnUse">
<stop stop-color="white"/>
<stop offset="1" stop-color="white" stop-opacity="0"/>
</linearGradient>
</defs>
</svg>
